
<svg xmlns="http://www.w3.org/2000/svg">

<defs>

<symbol  width="155" height="127" id="ka-ok" viewBox="0 0 155 127" fill="none" >
<path d="M89.9772 31.4019C95.1638 29.7644 99.5395 27.3619 103.777 25.0205C108.413 22.4649 113.202 19.8634 118.633 18.6238C118.542 18.5014 118.419 18.3943 118.327 18.2565C117.868 17.6291 117.455 16.9558 117.149 16.2365C116.813 15.4561 116.675 14.5838 116.598 13.7421C116.553 13.2218 116.507 12.6403 116.216 12.1965C116.048 11.9364 115.788 11.6915 115.528 11.5079C115.329 11.3702 115.13 11.2477 114.9 11.1559C114.686 11.0794 114.457 11.0335 114.212 11.0335C113.676 11.0488 113.156 11.2018 112.636 11.2937C111.779 11.4467 110.984 11.4926 110.127 11.3549C109.224 11.2171 108.367 10.957 107.526 10.6509C107.511 10.6509 107.511 10.6509 107.495 10.6356C107.495 10.6356 107.495 10.6356 107.48 10.6356C106.944 10.4367 106.409 10.2071 105.889 9.94698C105.047 9.5338 104.221 9.05941 103.456 8.5085C102.829 8.06471 102.232 7.5444 101.712 6.96289C101.146 6.33546 100.763 5.55501 100.427 4.78985C100.213 4.31546 99.9984 3.74925 99.5854 3.41258C99.3406 3.19834 99.004 3.04531 98.698 2.95349C98.4991 2.89228 98.2849 2.84637 98.0707 2.83106C97.8106 2.81576 97.5505 2.83106 97.3057 2.90758C96.8161 3.07591 96.3724 3.38197 95.9135 3.62682C95.5004 3.85637 95.0567 4.07061 94.613 4.23894C94.2764 4.36137 93.9245 4.42258 93.5726 4.48379C92.6546 4.63682 91.7367 4.66743 90.8187 4.63682C90.2373 4.62152 89.6406 4.56031 89.0439 4.46849C88.0189 4.31546 87.0244 4.08591 86.0452 3.76455C85.4027 3.55031 84.7754 3.25955 84.1787 2.90758C84.0716 2.84637 83.9492 2.78515 83.8421 2.72394C83.2301 2.32606 82.7252 1.69864 82.2356 1.16303C82.0214 0.918183 81.7766 0.658031 81.5166 0.459091C81.3636 0.336667 81.2106 0.229546 81.0423 0.168334C80.7669 0.0459091 80.4303 0 80.109 0C79.8948 0 79.65 0.0153031 79.4358 0.0765152C79.4052 0.0765152 79.3899 0.107121 79.3593 0.107121C79.1604 0.168334 78.9768 0.229546 78.8238 0.336667C78.6249 0.459091 78.4566 0.627425 78.3036 0.795759C78.1507 0.964092 77.9977 1.13243 77.8447 1.28546C77.5387 1.60682 77.2327 1.95879 76.8961 2.24955C76.8655 2.26485 76.8502 2.29546 76.8196 2.32606C76.5442 2.55561 76.2229 2.73925 75.9169 2.92288C75.0907 3.39728 74.1575 3.73394 73.2395 3.9941C72.6428 4.16243 72.0155 4.30016 71.4035 4.40728C70.4091 4.59091 69.3993 4.69804 68.4048 4.68273C67.6092 4.66743 66.8137 4.59091 66.0334 4.40728C65.299 4.22364 64.6105 3.81046 63.9526 3.42788C63.4937 3.16773 62.9888 2.84637 62.4533 2.80046C62.3003 2.78516 62.132 2.80046 61.9637 2.83106C61.7954 2.86167 61.6424 2.89228 61.4894 2.95349C61.0457 3.09122 60.6326 3.32076 60.3572 3.68804C60.0666 4.07061 59.8983 4.5144 59.6994 4.94288C59.3322 5.75395 58.9344 6.44258 58.3377 7.08531C57.6951 7.77395 56.9454 8.35546 56.1499 8.89107C55.645 9.22774 55.1248 9.5338 54.574 9.82456C53.7937 10.2377 52.9828 10.6203 52.1261 10.8958C51.2693 11.1865 50.3819 11.4008 49.4792 11.462C48.6684 11.5232 47.8575 11.3549 47.0772 11.1865C46.5876 11.0794 46.0215 10.9417 45.5167 11.0641C45.226 11.1406 44.92 11.309 44.6752 11.4926C44.3233 11.7527 43.9867 12.0894 43.8337 12.5026C43.6807 12.9311 43.6501 13.3902 43.5889 13.834C43.4818 14.7062 43.3594 15.4867 43.0075 16.2977C42.6097 17.1853 42.059 17.9964 41.4623 18.7462C41.0798 19.2359 40.6667 19.7103 40.223 20.1541C39.305 21.1029 38.28 21.9905 37.1325 22.6638C37.1019 22.6791 37.056 22.6944 37.0254 22.725C42.4567 28.0811 54.6199 33.7126 72.9029 33.7126C79.2675 33.7279 85.1732 32.9322 89.9772 31.4019Z" fill="#E31113"/>
<path d="M115.038 104.78C115.589 102.989 116.767 101.49 118.297 100.51C117.654 99.9287 117.119 99.2401 116.706 98.4596C116.063 97.266 115.788 95.9499 115.834 94.6185C115.834 94.5726 115.834 94.5267 115.834 94.4808C115.864 93.8381 115.941 93.2107 116.14 92.5832C116.889 90.1654 118.771 88.2984 121.097 87.5026C121.433 87.3802 121.785 87.2884 122.137 87.2119C122.015 86.9517 121.938 86.6763 121.846 86.4008C121.341 84.9011 121.296 83.279 121.77 81.7334C122.504 79.3461 124.371 77.4944 126.65 76.6834C127.477 76.3773 128.364 76.209 129.267 76.209C129.496 76.209 129.726 76.2396 129.97 76.2549C130.475 76.3008 130.965 76.3773 131.439 76.515L136.565 78.0453L137.008 76.5456C136.825 76.2243 136.641 75.9182 136.488 75.5969C136.35 75.2908 136.228 74.9847 136.136 74.6787C135.769 73.4544 135.738 72.1078 135.8 70.8376C135.83 70.3173 135.876 69.797 135.953 69.2767C136.197 67.5781 136.641 65.8641 137.498 64.3797C137.926 63.6605 138.508 63.079 139.12 62.528C139.517 62.1761 139.992 61.7782 140.206 61.2732C140.328 60.9671 140.374 60.6152 140.374 60.2938C140.374 59.8194 140.282 59.3144 139.992 58.9318C139.854 58.7329 139.67 58.5646 139.502 58.4115C139.318 58.2432 139.135 58.0902 138.967 57.9218C138.936 57.9065 138.921 57.8759 138.905 57.8606L138.89 57.8453C138.722 57.6923 138.569 57.5393 138.431 57.3862C138.003 56.9424 137.651 56.468 137.36 55.9018C136.932 55.0908 136.626 54.2185 136.381 53.3309C136.213 52.7647 136.09 52.1832 135.998 51.6017C135.708 49.903 135.601 48.1126 135.968 46.4292C136.151 45.6182 136.549 44.8836 136.947 44.1797C137.222 43.7206 137.544 43.2003 137.59 42.6494C137.605 42.328 137.544 41.9761 137.437 41.67C137.284 41.2262 137.054 40.813 136.672 40.5223C136.259 40.2468 135.784 40.0632 135.341 39.8642C134.927 39.6653 134.545 39.4511 134.178 39.2062C133.826 38.9767 133.489 38.7165 133.168 38.3951C132.51 37.7524 131.959 37.0332 131.454 36.268C131.133 35.7783 130.842 35.2733 130.567 34.753C129.925 33.5288 129.389 32.2127 129.114 30.8507L128.563 30.6365C127.048 30.055 125.518 29.6112 124.004 29.3204C122.259 28.9838 120.439 28.8154 118.557 28.8154C107.924 28.8154 96.2042 34.1256 85.1274 39.8642C75.917 44.2562 67.2728 46.3068 57.9094 46.3068C49.7394 46.3068 40.5903 44.7765 29.1462 41.4711C27.907 41.1191 26.7442 40.7518 25.6273 40.3845L24.5257 40.0173C24.2963 40.1244 24.0362 40.2315 23.8067 40.3539C23.5925 40.4764 23.3936 40.6141 23.2406 40.7977C23.0417 41.0426 22.8887 41.3639 22.7969 41.67C22.6133 42.2209 22.598 42.7718 22.8275 43.3074C23.1029 43.9195 23.4854 44.4704 23.7761 45.0826C24.4645 46.5211 24.5257 48.2044 24.4339 49.7653C24.4033 50.2703 24.3575 50.7753 24.281 51.265C24.0362 52.9789 23.5772 54.7694 22.6745 56.2691C22.445 56.6517 22.1696 56.9883 21.8636 57.3097C21.5882 57.6158 21.2975 57.8912 21.0068 58.1514C20.8385 58.3044 20.6397 58.4727 20.4714 58.6411C20.2878 58.84 20.1195 59.0543 20.0277 59.3144C19.9053 59.6052 19.8594 59.9724 19.8594 60.2785C19.8594 60.7835 19.9665 61.2885 20.2725 61.6864C20.6091 62.1302 21.0527 62.4668 21.4505 62.8341C22.0625 63.4309 22.5521 64.0584 22.9346 64.8082C23.3324 65.604 23.6231 66.4456 23.8679 67.3026C24.0209 67.8535 24.1433 68.4044 24.2351 68.9553C24.541 70.6846 24.6481 72.5209 24.2351 74.2349C24.0515 75 23.6996 75.6887 23.3018 76.3773C23.0264 76.8517 22.6898 77.3567 22.6592 77.9229C22.6286 78.2443 22.7051 78.5963 22.7969 78.9023C22.9499 79.3614 23.1947 79.7899 23.5925 80.0806C24.0209 80.3867 24.5257 80.555 24.9847 80.7846C25.765 81.1519 26.4535 81.5956 27.0655 82.1925C27.7234 82.8352 28.2741 83.5544 28.779 84.3196C29.1003 84.8093 29.391 85.3143 29.6664 85.8193C30.4773 87.3649 31.1505 89.0635 31.3035 90.8234C31.3647 91.6344 31.1964 92.4455 31.0281 93.2413C30.921 93.7463 30.7833 94.3125 30.9057 94.8175C30.9822 95.1235 31.1658 95.4449 31.3494 95.6898C31.6247 96.0723 31.9766 96.409 32.4356 96.562C32.9099 96.7151 33.4148 96.7304 33.9044 96.7916C34.7612 96.8987 35.5108 97.067 36.2911 97.4343C37.1326 97.8475 37.9129 98.3678 38.6473 98.9493C39.1215 99.3166 39.5652 99.7145 39.9936 100.143C41.2023 101.321 42.3192 102.683 43.0229 104.229C43.3901 105.04 43.5278 105.882 43.6196 106.754C43.6655 107.274 43.7267 107.871 44.0021 108.33C44.1704 108.606 44.4305 108.835 44.6906 109.034C45.8534 109.876 46.4959 109.417 48.2248 109.156C49.77 108.927 51.3765 109.386 52.8147 109.937C53.3195 110.136 53.8091 110.35 54.2834 110.595C55.8287 111.36 57.3433 112.324 58.4908 113.61C59.0569 114.237 59.4394 115.002 59.776 115.783C59.9902 116.257 60.2043 116.808 60.6174 117.145C60.8622 117.344 61.1835 117.497 61.4742 117.588C61.9485 117.741 62.4534 117.787 62.943 117.619C63.4632 117.435 63.9221 117.099 64.4117 116.839C65.1614 116.441 65.9111 116.181 66.7526 116.043C67.6399 115.905 68.5273 115.89 69.43 115.92C69.9961 115.951 70.5622 115.997 71.1283 116.089C72.8571 116.334 74.6319 116.808 76.1465 117.711C76.8197 118.124 77.3705 118.721 77.8907 119.302C78.2425 119.685 78.625 120.159 79.1146 120.358C79.4206 120.481 79.7725 120.527 80.0938 120.527C80.5834 120.527 81.073 120.419 81.4708 120.129C81.8991 119.807 82.2204 119.379 82.5876 118.996C83.1843 118.369 83.7963 117.879 84.5613 117.481C85.3722 117.068 86.2289 116.762 87.101 116.517C87.6671 116.364 88.2332 116.242 88.7993 116.135C90.5128 115.844 92.3335 115.721 94.047 116.119C94.8273 116.303 95.5464 116.686 96.2349 117.083C96.6938 117.359 97.1987 117.68 97.7495 117.711C98.0708 117.726 98.4227 117.665 98.7287 117.558C99.2183 117.389 99.662 117.129 99.9527 116.701C100.274 116.226 100.458 115.676 100.702 115.155C101.483 113.579 102.798 112.477 104.237 111.528C104.696 111.222 105.17 110.947 105.659 110.687C107.22 109.86 108.964 109.172 110.739 109.049C111.534 108.988 112.33 109.156 113.11 109.325C113.6 109.432 114.166 109.554 114.671 109.432C114.809 109.401 114.946 109.34 115.084 109.264C114.594 107.871 114.579 106.295 115.038 104.78Z" fill="#E31113"/>
<path d="M151.054 89.2324C150.947 89.0641 150.855 88.9569 150.748 88.8345C148.453 86.0953 148.56 82.1624 149.172 80.4178L149.141 80.4025L152.584 68.6039C153.288 66.1554 151.88 63.5692 149.432 62.8653C147.03 62.1613 144.383 63.6304 143.695 66.0177L139.426 80.678C139.304 81.1218 138.998 81.4891 138.6 81.7186C138.202 81.9329 137.728 81.9941 137.284 81.8563L134.637 81.0912L130.461 79.8669C130.078 79.7598 129.665 79.6986 129.252 79.6986C128.992 79.6986 128.747 79.7292 128.502 79.7598C126.911 80.0353 125.549 81.1983 125.06 82.7592C124.754 83.7539 124.846 84.8098 125.274 85.7433C125.305 85.8198 125.335 85.9116 125.366 85.9882C125.901 86.9676 126.789 87.6868 127.875 88.0082L129.466 88.4673L134.867 90.0435C135.785 90.3036 136.32 91.2677 136.045 92.1859C135.785 93.1041 134.821 93.6397 133.888 93.3642L133.842 93.3489L128.977 91.9257L124.815 90.7168C123.53 90.3495 122.168 90.6556 121.113 91.3748C120.608 91.7268 120.164 92.1859 119.843 92.7215C119.674 92.997 119.537 93.2877 119.43 93.6091C119.093 94.6956 119.2 95.828 119.736 96.8227C120.195 97.6797 120.944 98.3224 121.847 98.6897C121.985 98.7509 122.107 98.8121 122.245 98.8427L131.486 101.536C132.404 101.796 132.939 102.76 132.664 103.678C132.388 104.597 131.44 105.132 130.507 104.857L123.622 102.852C123.27 102.76 122.887 102.699 122.49 102.699C120.592 102.699 118.879 103.969 118.313 105.775C117.992 106.831 118.083 107.948 118.603 108.897C119.17 109.953 120.179 110.733 121.465 111.1L132.511 114.329C133.429 114.59 133.964 115.554 133.689 116.472C133.429 117.39 132.465 117.926 131.547 117.65H131.532L122.015 114.88C119.766 114.222 117.303 115.584 116.63 117.773C116.293 118.859 116.4 119.992 116.936 120.986C117.471 121.981 118.359 122.7 119.46 123.022C119.46 123.022 129.023 125.791 132.603 126.832C132.694 126.817 132.786 126.801 132.893 126.801C132.97 126.801 133.062 126.801 133.138 126.817C133.811 126.909 134.484 126.954 135.158 126.954C143.037 126.954 150.35 120.772 153.012 111.912C153.028 111.835 153.043 111.743 153.073 111.651L154.007 108.514C156.042 101.613 154.925 94.3895 151.054 89.2324Z" fill="#E31113"/>
<path d="M7.42029 85.8496C3.33531 85.8496 0 89.1857 0 93.2716C0 97.3575 3.33531 100.694 7.42029 100.694C11.5053 100.694 14.8406 97.3728 14.8406 93.2716C14.8406 89.1857 11.5053 85.8496 7.42029 85.8496Z" fill="#E31113"/>
<path d="M19.5677 102.652C16.9209 102.652 14.7637 104.81 14.7637 107.457C14.7637 110.105 16.9209 112.263 19.5677 112.263C22.2146 112.263 24.3718 110.105 24.3718 107.457C24.3565 104.795 22.2146 102.652 19.5677 102.652Z" fill="#E31113"/>
<path d="M33.4138 106.295C31.6849 106.295 30.2773 107.703 30.2773 109.417C30.2773 111.146 31.6849 112.554 33.4138 112.554C35.1426 112.554 36.5502 111.146 36.5502 109.417C36.5349 107.703 35.1426 106.295 33.4138 106.295Z" fill="#E31113"/>
<path d="M71.632 89.0185C71.632 89.0185 71.7085 88.9726 71.8615 88.8961C72.0145 88.8349 72.2287 88.7278 72.5041 88.6053C72.6418 88.5441 72.8101 88.4982 72.963 88.4217C73.116 88.3452 73.269 88.284 73.4373 88.2075C73.7739 88.0697 74.1411 87.932 74.5695 87.7637C74.9826 87.6106 75.4416 87.4423 75.9312 87.274C76.4055 87.1209 76.9103 86.922 77.4152 86.769C77.9201 86.5853 78.4556 86.4323 78.9911 86.2487C79.5266 86.0803 80.0773 85.912 80.6128 85.7437C80.8882 85.6672 81.1483 85.56 81.4237 85.4835C81.6991 85.407 81.9592 85.3152 82.2346 85.2387C82.51 85.1622 82.7701 85.0703 83.0302 84.9938C83.2903 84.9173 83.5657 84.8255 83.8257 84.7643C84.3459 84.6112 84.8508 84.4582 85.3404 84.3205C85.83 84.1828 86.3043 84.0603 86.748 83.9379C87.1917 83.8308 87.62 83.7237 87.9872 83.6319C88.3697 83.5553 88.7063 83.4788 88.9817 83.4176C89.2571 83.3564 89.4866 83.3258 89.6396 83.2952C89.7926 83.2646 89.8844 83.2646 89.8844 83.2646L90.0527 83.2493C91.2001 83.1422 92.2252 83.9991 92.3323 85.1469C92.3629 85.56 92.2864 85.9579 92.1028 86.3099C92.1028 86.3099 92.0569 86.4017 91.9804 86.5394C91.8886 86.6925 91.7509 86.9067 91.5673 87.1669C91.3837 87.4423 91.1542 87.7484 90.8635 88.085C90.7258 88.2534 90.5576 88.4217 90.3893 88.6206C90.221 88.8043 90.0221 88.9726 89.8385 89.1716C89.456 89.5541 88.997 89.9214 88.5074 90.3193C88.0178 90.7019 87.467 91.0691 86.8857 91.4211C86.3043 91.7731 85.6923 92.1097 85.0344 92.4005C84.7131 92.5535 84.3918 92.6913 84.0552 92.829C83.7186 92.9667 83.3821 93.0891 83.0302 93.2116C82.3417 93.4411 81.6379 93.64 80.9494 93.7778C80.2609 93.9461 79.5572 94.0226 78.884 94.1144C78.2108 94.1757 77.5529 94.2063 76.9256 94.191C76.6196 94.1757 76.3137 94.1757 76.023 94.1603C75.7323 94.1297 75.4416 94.1144 75.1815 94.0685C74.646 94.0073 74.1258 93.9155 73.6821 93.8237C73.4526 93.7778 73.2537 93.7319 73.0548 93.686C72.8866 93.6247 72.7183 93.5788 72.5806 93.5329C72.2899 93.4411 72.0757 93.334 71.9227 93.2728C71.7697 93.2116 71.6932 93.1657 71.6932 93.1657C70.5304 92.5841 70.0561 91.1763 70.6528 90.0132C70.8976 89.5694 71.2342 89.2328 71.632 89.0185Z" fill="black"/>
<path d="M52.4308 20.3993C51.5282 20.9808 49.7993 21.6847 48.6518 21.1797C47.3667 20.537 47.7645 18.8996 48.9884 18.0273C56.1945 12.9161 65.0071 9.53408 74.4469 8.24863C76.2829 8.00378 78.1494 7.78954 79.9854 7.74363C84.3916 7.6212 84.1927 8.89136 81.6836 9.28924C63.217 12.2274 57.0972 17.4458 52.4308 20.3993Z" fill="#DADADA"/>
<path d="M24.5098 40.0021L25.6113 40.3693C26.7282 40.7366 27.891 41.1039 29.1302 41.4558C40.5896 44.746 49.7235 46.2916 57.8934 46.2916C67.2568 46.2916 75.901 44.2563 85.1114 39.849C96.1883 34.1104 107.908 28.8002 118.541 28.8002C120.423 28.8002 122.259 28.9686 123.988 29.3052C125.502 29.596 127.032 30.0398 128.547 30.6213L129.098 30.8355L129.159 30.8661C129.098 30.5448 129.021 30.2234 128.991 29.902C128.975 29.7796 128.975 29.6419 128.975 29.5195C128.96 29.5195 128.929 29.5042 128.914 29.5042V29.4889C128.899 28.7696 129.021 28.0504 129.174 27.3617C129.281 26.8567 129.434 26.2752 129.297 25.7549C129.22 25.4489 129.036 25.1428 128.853 24.8826C128.593 24.5154 128.256 24.194 127.828 24.041C127.461 23.9032 127.078 23.8726 126.696 23.8267C126.634 23.8267 126.558 23.8114 126.497 23.7961C126.007 23.7502 125.502 23.689 125.028 23.5666C124.676 23.4748 124.34 23.337 124.018 23.184C123.146 22.7861 122.351 22.2505 121.601 21.6537C121.111 21.2711 120.652 20.8579 120.209 20.4295C119.964 20.1846 119.719 19.9245 119.49 19.6796C119.49 19.6796 119.505 19.6796 119.52 19.6796C119.214 19.3582 118.939 19.0063 118.663 18.6543C118.648 18.6543 118.648 18.6543 118.633 18.6543C113.201 19.8938 108.428 22.5107 103.777 25.051C99.5389 27.377 95.1632 29.7796 89.9767 31.4323C85.1726 32.9627 79.267 33.7584 72.9023 33.7584C54.6193 33.7584 42.4562 28.1422 37.0248 22.7708C36.7035 22.9545 36.3669 23.1381 36.0151 23.2758C35.9998 23.2911 35.9692 23.2911 35.9539 23.3064C35.2042 23.6125 34.378 23.7196 33.5824 23.7961C33.0775 23.842 32.4962 23.8879 32.0525 24.1787C31.7771 24.347 31.5476 24.6072 31.3487 24.8673C31.0733 25.2499 30.8591 25.6937 30.8591 26.1834C30.8591 26.6884 30.9968 27.1781 31.0886 27.6678C31.1804 28.1269 31.2875 28.6013 31.3028 29.0757C31.3181 29.4276 31.2722 29.7949 31.211 30.1469C31.0886 31.0804 30.8132 31.9679 30.4919 32.8555C30.293 33.4064 30.0482 33.9573 29.7881 34.493C29.0231 36.0539 28.044 37.5689 26.7282 38.7319C26.514 38.9155 26.2845 39.0686 26.055 39.2216C25.5807 39.5277 25.0759 39.7572 24.571 39.9867C24.5404 40.0021 24.5098 40.0174 24.4639 40.0327C24.2344 40.1398 24.0049 40.2469 23.7754 40.3846C24.0355 40.2163 24.2803 40.1092 24.5098 40.0021Z" fill="white"/>
<path d="M129.955 76.271C133.061 67.9155 133.994 58.7337 131.715 49.9803C127.584 34.0958 120.378 30.3771 119.506 31.9227C118.817 33.147 120.362 34.4324 122.948 38.9621C129.802 51.0209 130.781 64.7478 126.651 76.6841C127.477 76.3781 128.364 76.2098 129.267 76.2098C129.481 76.2251 129.71 76.2557 129.955 76.271Z" fill="#CCCCCC"/>
<path d="M121.769 45.0375C120.591 44.3489 116.736 43.2012 103.854 43.2012C95.7602 43.2012 91.1856 43.9663 87.1159 44.6244C84.1019 45.1141 81.5163 45.5578 77.9821 45.5578C74.4479 45.5578 71.8622 45.1294 68.8482 44.6244C64.7785 43.951 60.1887 43.2012 52.0952 43.2012C46.572 43.2012 36.7191 43.446 33.9652 45.0375C33.0625 45.5578 32.3281 46.5372 32.3281 47.5778V52.23C32.3281 53.6226 33.1543 54.8162 34.4854 55.1069C34.516 55.1835 34.3936 55.3365 34.3936 55.566V55.6426C34.3936 57.3718 34.7149 62.6054 37.071 67.5024C40.1615 73.945 46.2354 77.3576 54.3136 77.3576C62.4377 77.3576 68.1903 75.2152 71.7245 70.8232C74.7385 67.0739 75.5341 62.3606 76.0849 58.9327L76.192 58.3971C76.4521 56.7597 77.4313 56.1629 78.0127 56.1629C78.594 56.1629 79.5579 56.7597 79.818 58.3971L79.9098 58.9327C80.4606 62.3606 81.2256 67.0739 84.2396 70.8232C87.7738 75.2152 93.4499 77.3576 101.574 77.3576C109.652 77.3576 115.818 73.945 118.908 67.5024C121.265 62.6054 121.509 57.3565 121.509 55.6426V55.566C121.509 55.3365 121.188 55.1988 121.203 55.1069C122.534 54.8162 123.146 53.6226 123.146 52.23V47.5931C123.131 46.5525 122.672 45.5731 121.769 45.0375Z" fill="black"/>
<path d="M42.0598 54.8469C41.5397 55.107 40.8512 55.1529 40.6064 54.8928C39.0305 53.5308 41.5397 50.3019 47.0781 48.894C52.6165 47.5014 56.3649 49.1541 55.6153 51.0976C55.5235 51.4343 54.8962 51.7251 54.3148 51.7404C50.1686 51.8934 45.7623 53.0105 42.0598 54.8469Z" fill="white"/>
 </symbol>
  </defs>
</svg>



